<?xml version="1.0" encoding="UTF-8"?>
<svg version="1.1" xmlns="http://www.w3.org/2000/svg" width="1024" height="1024">
<path d="M0 0 C337.92 0 675.84 0 1024 0 C1024 337.92 1024 675.84 1024 1024 C686.08 1024 348.16 1024 0 1024 C0 686.08 0 348.16 0 0 Z " fill="#1C1C1D" transform="translate(0,0)"/>
<path d="M0 0 C337.92 0 675.84 0 1024 0 C1024 337.92 1024 675.84 1024 1024 C686.08 1024 348.16 1024 0 1024 C0 686.08 0 348.16 0 0 Z M100 130 C98.24981331 132.53673303 96.6626803 135.14229583 95.125 137.8125 C94.76760742 138.42754395 94.41021484 139.04258789 94.04199219 139.67626953 C88.55814834 149.78176648 86.39860832 160.13258425 86.49663544 171.54232025 C86.49082167 172.74035217 86.48500791 173.9383841 86.47901797 175.17272002 C86.467009 178.47239007 86.47269252 181.77145935 86.48612978 185.07110543 C86.49633619 188.67059555 86.48321351 192.27001666 86.47315645 195.86949682 C86.45874754 202.1695844 86.45912453 208.46953473 86.46934509 214.76962852 C86.48450218 224.13821073 86.47672602 233.50667758 86.46451186 242.87525906 C86.44346641 259.6094511 86.44526748 276.343582 86.45682751 293.07777984 C86.46689415 307.7222445 86.46951448 322.36668677 86.46473694 337.01115417 C86.4644314 337.98297572 86.46412586 338.95479727 86.46381106 339.95606796 C86.46256568 343.90111871 86.46129208 347.84616945 86.459972 351.79122018 C86.44773906 388.79042118 86.45882501 425.78958327 86.48035959 462.78877827 C86.49934167 495.65233787 86.49764315 528.51583547 86.47851562 561.37939453 C86.45709194 598.31140484 86.44860665 635.24338078 86.46096468 672.17539644 C86.46224753 676.1132129 86.46349889 680.05102936 86.46473694 683.98884583 C86.46505325 684.95841961 86.46536956 685.92799339 86.46569545 686.9269482 C86.47024321 701.56134954 86.46492821 716.19572601 86.45481873 730.8301239 C86.44337975 747.47194804 86.44624517 764.11370154 86.4679417 780.75551689 C86.47968085 790.06662487 86.48046229 799.37757984 86.465357 808.68868384 C86.4563763 814.91135093 86.46198981 821.13389555 86.47937608 827.35654453 C86.48887382 830.89983442 86.49218157 834.44282071 86.47775215 837.98610085 C86.46557594 841.8102512 86.47807796 845.63357246 86.49663544 849.45767975 C86.48727077 850.5476674 86.47790611 851.63765505 86.46825767 852.76067263 C86.66309821 872.87062419 97.69931926 890.79888473 111.66015625 904.63671875 C126.8554026 917.81786764 145.96893147 923.49906965 165.8460474 923.38311005 C167.06478525 923.38806956 168.28352311 923.39302908 169.53919241 923.39813888 C172.89229535 923.4087861 176.24489444 923.40621223 179.59797042 923.39780539 C183.25726675 923.39196092 186.91651688 923.40357112 190.57580036 923.41286707 C196.97956914 923.42673924 203.38326728 923.4295247 209.78704834 923.42490768 C219.31023902 923.41805956 228.83335848 923.42835367 238.35653926 923.44186524 C256.35756843 923.46674951 274.3585679 923.47129546 292.35961152 923.46939927 C306.26404155 923.46802505 320.16846131 923.47184947 334.07288933 923.47932434 C336.07207984 923.48037469 338.07127035 923.4814223 340.07046087 923.4824672 C341.06288953 923.48298655 342.05531819 923.48350589 343.07782045 923.48404097 C344.07208977 923.48456112 345.06635909 923.48508126 346.09075779 923.48561716 C347.08672155 923.48614115 348.08268531 923.48666514 349.10882979 923.48720502 C377.11462201 923.50178476 405.12041046 923.51007243 433.1262064 923.50545502 C434.18158053 923.50528306 435.23695467 923.50511111 436.32430984 923.50493394 C441.67308034 923.50404508 447.02185084 923.50310027 452.37062133 923.50213593 C453.96397668 923.50184938 453.96397668 923.50184938 455.58952103 923.50155704 C457.73762215 923.50116995 459.88572328 923.50077962 462.03382441 923.50038607 C495.44811502 923.49441786 528.86233634 923.50984783 562.27661133 923.54199219 C599.83972618 923.57809728 637.40279711 923.59739792 674.9659304 923.59245348 C678.97408704 923.59198352 682.98224367 923.59157326 686.99040031 923.59120178 C687.97726917 923.5910994 688.96413803 923.59099701 689.980912 923.59089152 C704.85639537 923.5896984 719.73183115 923.60164165 734.60730171 923.62034607 C751.53397495 923.6416197 768.46054862 923.64539567 785.38722635 923.62604648 C794.84999656 923.61574818 804.31252362 923.61911881 813.77527167 923.64257733 C820.10920071 923.65688181 826.44295113 923.65275608 832.77686834 923.63413157 C836.37717986 923.62404876 839.97702058 923.62146465 843.57730145 923.64145225 C869.62159503 923.77622573 891.53132118 921.28555751 912 904 C912.61359375 903.51917969 913.2271875 903.03835938 913.859375 902.54296875 C926.68945423 892.23916618 935.32723014 874.26728073 937.5373705 858.05918604 C938.13654127 852.39727659 938.13938565 846.76500544 938.12863445 841.07646084 C938.13038749 839.89674167 938.13214053 838.71702251 938.13394669 837.50155428 C938.13778976 834.23482595 938.13718172 830.96813389 938.13466892 827.7014054 C938.13303131 824.14446311 938.13718042 820.5875267 938.14057809 817.0305863 C938.14572608 810.79914919 938.14715034 804.56771985 938.14612198 798.33628082 C938.14459652 789.06995731 938.14875993 779.80364238 938.1539966 770.53732054 C938.16366641 753.02591202 938.16648068 735.51450643 938.16705366 718.00309556 C938.16751315 704.48316328 938.16957121 690.96323215 938.17275429 677.44330025 C938.17365182 673.55209861 938.17454163 669.66089698 938.17542917 665.76969534 C938.17565021 664.80235297 938.17587126 663.83501061 938.17609901 662.83835483 C938.18225275 635.6309779 938.18619961 608.42360137 938.18575573 581.21622372 C938.18574015 580.19051459 938.18572457 579.16480546 938.18570852 578.10801423 C938.18562541 572.90923018 938.18552637 567.71044612 938.18542381 562.51166206 C938.18540387 561.47915257 938.18538392 560.44664308 938.18536337 559.38284542 C938.18532294 557.29486178 938.18528114 555.20687814 938.18523798 553.1188945 C938.18462495 520.61856517 938.1921371 488.11824627 938.20581055 455.61791992 C938.22116351 419.11046075 938.22977729 382.60300843 938.22884732 346.09554583 C938.22877269 342.20465855 938.22872399 338.31377127 938.22869301 334.42288399 C938.22868135 333.46483544 938.2286697 332.5067869 938.22865769 331.51970657 C938.22862689 316.08933677 938.23501787 300.65897601 938.24362527 285.2286089 C938.25209254 269.72925424 938.25309894 254.22991283 938.24651595 238.73055714 C938.24281447 229.51843612 938.24467052 220.30635533 938.25445829 211.09423856 C938.26044199 204.94380518 938.25918082 198.79340104 938.25198779 192.64296903 C938.24809272 189.13681985 938.24736954 185.63074871 938.25544515 182.12460493 C938.26246396 178.34889693 938.2572439 174.5733987 938.24888897 170.79769802 C938.25634124 169.16295752 938.25634124 169.16295752 938.26394406 167.49519196 C938.17388917 148.34115787 928.96816564 133.43851362 916 120 C915.40832031 119.3709375 914.81664062 118.741875 914.20703125 118.09375 C898.73845248 103.06908188 874.84697464 98.66922897 854.19218445 98.73993778 C852.96545017 98.73613211 851.7387159 98.73232644 850.47480786 98.72840545 C847.09477335 98.7199242 843.71495604 98.72025798 840.33492805 98.72446081 C836.64819135 98.72684076 832.96147963 98.71764032 829.27475262 98.70997661 C822.82149226 98.69816406 816.36826014 98.69376249 809.91498947 98.69429779 C800.31860962 98.69509291 790.72226527 98.68452196 781.12589493 98.67188222 C761.99108445 98.64717866 742.85628266 98.63836386 723.72145842 98.63334573 C722.73132121 98.63308456 721.741184 98.63282338 720.72104263 98.63255429 C719.72888871 98.63229402 718.73673478 98.63203374 717.71451558 98.63176558 C706.7102596 98.62868088 695.70600603 98.62217544 684.70175171 98.6155529 C651.46010964 98.59591146 618.21847015 98.57950247 584.9768219 98.57667637 C583.91424856 98.57658231 582.85167522 98.57648825 581.75690269 98.57639134 C577.45088809 98.57601286 573.14487349 98.57564886 568.83885888 98.57528836 C565.59797623 98.57501664 562.35709359 98.57473996 559.11621094 98.57446289 C557.50984691 98.57433086 557.50984691 98.57433086 555.87103109 98.57419616 C522.20859127 98.57128952 488.54620883 98.54917955 454.88378906 98.51293945 C417.05524198 98.47221513 379.226734 98.44851784 341.3981638 98.44821686 C337.36485862 98.44812003 333.33155346 98.44795331 329.29824829 98.44773674 C328.30516095 98.44769263 327.31207361 98.44764851 326.28889271 98.44760306 C310.30924756 98.44648332 294.32965994 98.42907669 278.35003331 98.40591742 C262.29319861 98.38307771 246.23644164 98.37884799 230.17959666 98.39346672 C220.64182743 98.40161853 211.10430305 98.39592583 201.56656351 98.37028587 C195.19282405 98.3545344 188.81925841 98.35701101 182.44552312 98.3741926 C178.81588968 98.38346499 175.18672783 98.38495745 171.55713117 98.36422653 C167.64046713 98.34204675 163.72450127 98.35884132 159.80781555 98.37917423 C158.13192327 98.36032917 158.13192327 98.36032917 156.42217457 98.3411034 C135.25024156 98.57622664 113.10693659 113.91025558 100 130 Z " fill="#515151" transform="translate(0,0)"/>
<path d="M0 0 C1.73115555 0.00406357 1.73115555 0.00406357 3.49728394 0.00820923 C28.93007529 0.09848133 53.51494904 2.09256397 78 9.4375 C79.21042969 9.79328125 80.42085937 10.1490625 81.66796875 10.515625 C98.93896852 15.95953614 116.00797783 22.89371279 132.00292969 31.38818359 C134.19979073 32.54247562 136.4146288 33.65679557 138.6328125 34.76953125 C149.38149953 40.21270018 159.28084057 46.3278683 169 53.4375 C169.66628418 53.91977051 170.33256836 54.40204102 171.01904297 54.89892578 C185.1230455 65.13335998 197.95022505 76.21741822 210.3125 88.5 C211.69139404 89.86487549 211.69139404 89.86487549 213.09814453 91.25732422 C219.15634124 97.34397858 224.65996995 103.71702243 230 110.4375 C231.26944728 111.98030818 232.54007341 113.52214808 233.8125 115.0625 C244.63920834 128.71915983 253.67037061 143.14786038 262 158.4375 C262.5269043 159.3955957 263.05380859 160.35369141 263.59667969 161.34082031 C269.54571775 172.20600236 275.04201798 182.92396277 278.81640625 194.74609375 C279.64824151 197.34043145 280.52103526 199.8434714 281.5 202.37890625 C283.06665999 206.5025631 284.28509886 210.68183045 285.4375 214.9375 C285.75835571 216.12013428 285.75835571 216.12013428 286.08569336 217.32666016 C286.5210561 218.93891086 286.95442777 220.55170062 287.38574219 222.16503906 C287.92902879 224.17494039 288.49778197 226.17792017 289.0703125 228.1796875 C291.44775551 236.88449853 292.89828266 245.63262703 294.1875 254.5625 C294.35451416 255.7179834 294.52152832 256.8734668 294.69360352 258.06396484 C296.67700827 272.46329961 297.20650316 286.73915462 297.1875 301.25 C297.18659363 302.53216904 297.18659363 302.53216904 297.18566895 303.84024048 C297.0776197 360.3598803 297.0776197 360.3598803 290 367.4375 C289.66594994 368.75574853 289.37535197 370.08510279 289.10546875 371.41796875 C288.0659975 376.27234738 286.75030189 381.0000419 285.3125 385.75 C284.9249353 387.03173096 284.9249353 387.03173096 284.52954102 388.33935547 C280.53362366 401.38418438 276.50051102 414.40226818 270 426.4375 C269.39382761 427.65396374 268.79271049 428.87295328 268.1953125 430.09375 C257.21287247 452.53447235 243.84155184 473.10445859 228 492.4375 C227.28199219 493.34242188 226.56398438 494.24734375 225.82421875 495.1796875 C219.64460308 502.7686892 212.89836927 509.75398388 206 516.6875 C205.08653809 517.61014648 204.17307617 518.53279297 203.23193359 519.48339844 C197.12758156 525.56047454 190.75629809 531.09965821 184 536.4375 C183.23220215 537.05399414 182.4644043 537.67048828 181.67333984 538.30566406 C146.74711121 566.28708705 106.55016548 585.20674767 63 595.4375 C61.93942383 595.69055908 61.93942383 595.69055908 60.85742188 595.94873047 C50.80034006 598.30570045 40.66385112 599.32266871 30.39257812 600.18798828 C28.49460411 600.38591986 26.60430007 600.6571685 24.71923828 600.95385742 C20.78225013 601.46581577 16.92271043 601.59866405 12.9609375 601.60546875 C12.20650864 601.60970352 11.45207977 601.61393829 10.67478943 601.61830139 C8.24146902 601.628151 5.80833676 601.62822672 3.375 601.625 C2.54165131 601.62439575 1.70830261 601.6237915 0.84970093 601.62316895 C-11.87497627 601.59808032 -24.38314163 601.20639387 -37 599.4375 C-38.5473584 599.22818848 -38.5473584 599.22818848 -40.12597656 599.01464844 C-73.4264249 594.44323743 -105.14869782 585.0185035 -135 569.4375 C-136.43085938 568.69886719 -136.43085938 568.69886719 -137.890625 567.9453125 C-156.43071406 558.12017548 -174.04394333 546.03900963 -190 532.4375 C-191.09574764 531.52661364 -192.1921373 530.6164992 -193.2890625 529.70703125 C-199.73456357 524.32181736 -205.90978273 518.72732634 -211.875 512.8125 C-212.48835205 512.20833252 -213.1017041 511.60416504 -213.73364258 510.98168945 C-218 506.68462556 -218 506.68462556 -218 504.4375 C-218.66 504.4375 -219.32 504.4375 -220 504.4375 C-222.58230285 502.01755751 -224.74984849 499.16281439 -227 496.4375 C-227.64702881 495.65681152 -227.64702881 495.65681152 -228.30712891 494.86035156 C-244.74556653 474.94157504 -258.65170821 453.81544137 -269.9375 430.5625 C-270.46915771 429.47018066 -271.00081543 428.37786133 -271.54858398 427.25244141 C-274.77125881 420.46813151 -277.45982268 413.61938299 -279.91210938 406.52148438 C-280.74056135 404.17296432 -281.60955913 401.9162873 -282.62890625 399.6484375 C-284.38517524 395.53546567 -285.67029796 391.34752332 -286.9375 387.0625 C-287.19837402 386.18110352 -287.45924805 385.29970703 -287.72802734 384.39160156 C-291.32713642 372.06004585 -294.04387603 359.7295459 -296.1875 347.0625 C-296.43814209 345.58281738 -296.43814209 345.58281738 -296.69384766 344.07324219 C-296.9285376 342.63319824 -296.9285376 342.63319824 -297.16796875 341.1640625 C-297.30485107 340.32439941 -297.4417334 339.48473633 -297.58276367 338.61962891 C-298.65498103 330.44216782 -299.16332914 322.31832747 -299.203125 314.07421875 C-299.20882507 313.12094193 -299.21452515 312.1676651 -299.22039795 311.1855011 C-299.22977569 309.17795901 -299.23635284 307.17040203 -299.24023438 305.1628418 C-299.24985496 302.17011799 -299.28091364 299.17810784 -299.3125 296.18554688 C-299.38567779 282.69937938 -298.17491789 269.73916431 -296 256.4375 C-295.7538553 254.88672684 -295.50775901 253.33594599 -295.26171875 251.78515625 C-292.78136101 236.55302065 -289.13920423 221.59068737 -284.5 206.875 C-284.22768555 206.00786377 -283.95537109 205.14072754 -283.67480469 204.24731445 C-269.53677894 160.63291718 -243.49950756 120.44371046 -212 87.4375 C-211.16855469 86.56480469 -210.33710938 85.69210937 -209.48046875 84.79296875 C-203.68281886 78.84923634 -197.5051179 73.58738501 -191 68.4375 C-189.74703125 67.41849609 -189.74703125 67.41849609 -188.46875 66.37890625 C-182.46757889 61.50770249 -176.32036663 56.88638144 -170 52.4375 C-168.92492187 51.67695313 -167.84984375 50.91640625 -166.7421875 50.1328125 C-149.99743888 38.5115623 -131.76792042 29.3076691 -113 21.4375 C-111.86401367 20.96038574 -111.86401367 20.96038574 -110.70507812 20.47363281 C-94.94623488 13.93364453 -78.93767963 9.02449001 -62.1875 5.75 C-61.218125 5.55970215 -60.24875 5.3694043 -59.25 5.17333984 C-55.84020955 4.5408965 -52.4255626 3.97863712 -49 3.4375 C-48.20579651 3.31041656 -47.41159302 3.18333313 -46.59332275 3.05239868 C-31.0246278 0.61839923 -15.74347166 -0.08706368 0 0 Z " fill="#969696" transform="translate(513,211.5625)"/>
<path d="M0 0 C1.73115555 0.00406357 1.73115555 0.00406357 3.49728394 0.00820923 C28.93007529 0.09848133 53.51494904 2.09256397 78 9.4375 C79.21042969 9.79328125 80.42085937 10.1490625 81.66796875 10.515625 C98.93896852 15.95953614 116.00797783 22.89371279 132.00292969 31.38818359 C134.19979073 32.54247562 136.4146288 33.65679557 138.6328125 34.76953125 C149.38149953 40.21270018 159.28084057 46.3278683 169 53.4375 C169.66628418 53.91977051 170.33256836 54.40204102 171.01904297 54.89892578 C185.1230455 65.13335998 197.95022505 76.21741822 210.3125 88.5 C211.69139404 89.86487549 211.69139404 89.86487549 213.09814453 91.25732422 C219.15634124 97.34397858 224.65996995 103.71702243 230 110.4375 C231.26944728 111.98030818 232.54007341 113.52214808 233.8125 115.0625 C244.63920834 128.71915983 253.67037061 143.14786038 262 158.4375 C262.5269043 159.3955957 263.05380859 160.35369141 263.59667969 161.34082031 C269.54571775 172.20600236 275.04201798 182.92396277 278.81640625 194.74609375 C279.64824151 197.34043145 280.52103526 199.8434714 281.5 202.37890625 C283.06665999 206.5025631 284.28509886 210.68183045 285.4375 214.9375 C285.75835571 216.12013428 285.75835571 216.12013428 286.08569336 217.32666016 C286.5210561 218.93891086 286.95442777 220.55170062 287.38574219 222.16503906 C287.92902879 224.17494039 288.49778197 226.17792017 289.0703125 228.1796875 C291.44775551 236.88449853 292.89828266 245.63262703 294.1875 254.5625 C294.35451416 255.7179834 294.52152832 256.8734668 294.69360352 258.06396484 C296.67700827 272.46329961 297.20650316 286.73915462 297.1875 301.25 C297.18659363 302.53216904 297.18659363 302.53216904 297.18566895 303.84024048 C297.0776197 360.3598803 297.0776197 360.3598803 290 367.4375 C289.66594994 368.75574853 289.37535197 370.08510279 289.10546875 371.41796875 C288.0659975 376.27234738 286.75030189 381.0000419 285.3125 385.75 C284.9249353 387.03173096 284.9249353 387.03173096 284.52954102 388.33935547 C280.53362366 401.38418438 276.50051102 414.40226818 270 426.4375 C269.39382761 427.65396374 268.79271049 428.87295328 268.1953125 430.09375 C257.21287247 452.53447235 243.84155184 473.10445859 228 492.4375 C227.28199219 493.34242188 226.56398438 494.24734375 225.82421875 495.1796875 C219.64460308 502.7686892 212.89836927 509.75398388 206 516.6875 C205.08653809 517.61014648 204.17307617 518.53279297 203.23193359 519.48339844 C197.12758156 525.56047454 190.75629809 531.09965821 184 536.4375 C183.23220215 537.05399414 182.4644043 537.67048828 181.67333984 538.30566406 C146.74711121 566.28708705 106.55016548 585.20674767 63 595.4375 C61.93942383 595.69055908 61.93942383 595.69055908 60.85742188 595.94873047 C50.80034006 598.30570045 40.66385112 599.32266871 30.39257812 600.18798828 C28.49460411 600.38591986 26.60430007 600.6571685 24.71923828 600.95385742 C20.78225013 601.46581577 16.92271043 601.59866405 12.9609375 601.60546875 C12.20650864 601.60970352 11.45207977 601.61393829 10.67478943 601.61830139 C8.24146902 601.628151 5.80833676 601.62822672 3.375 601.625 C2.54165131 601.62439575 1.70830261 601.6237915 0.84970093 601.62316895 C-11.87497627 601.59808032 -24.38314163 601.20639387 -37 599.4375 C-38.5473584 599.22818848 -38.5473584 599.22818848 -40.12597656 599.01464844 C-73.4264249 594.44323743 -105.14869782 585.0185035 -135 569.4375 C-136.43085938 568.69886719 -136.43085938 568.69886719 -137.890625 567.9453125 C-156.43071406 558.12017548 -174.04394333 546.03900963 -190 532.4375 C-191.09574764 531.52661364 -192.1921373 530.6164992 -193.2890625 529.70703125 C-199.73456357 524.32181736 -205.90978273 518.72732634 -211.875 512.8125 C-212.48835205 512.20833252 -213.1017041 511.60416504 -213.73364258 510.98168945 C-218 506.68462556 -218 506.68462556 -218 504.4375 C-218.66 504.4375 -219.32 504.4375 -220 504.4375 C-222.58230285 502.01755751 -224.74984849 499.16281439 -227 496.4375 C-227.64702881 495.65681152 -227.64702881 495.65681152 -228.30712891 494.86035156 C-244.74556653 474.94157504 -258.65170821 453.81544137 -269.9375 430.5625 C-270.46915771 429.47018066 -271.00081543 428.37786133 -271.54858398 427.25244141 C-274.77125881 420.46813151 -277.45982268 413.61938299 -279.91210938 406.52148438 C-280.74056135 404.17296432 -281.60955913 401.9162873 -282.62890625 399.6484375 C-284.38517524 395.53546567 -285.67029796 391.34752332 -286.9375 387.0625 C-287.19837402 386.18110352 -287.45924805 385.29970703 -287.72802734 384.39160156 C-291.32713642 372.06004585 -294.04387603 359.7295459 -296.1875 347.0625 C-296.43814209 345.58281738 -296.43814209 345.58281738 -296.69384766 344.07324219 C-296.9285376 342.63319824 -296.9285376 342.63319824 -297.16796875 341.1640625 C-297.30485107 340.32439941 -297.4417334 339.48473633 -297.58276367 338.61962891 C-298.65498103 330.44216782 -299.16332914 322.31832747 -299.203125 314.07421875 C-299.20882507 313.12094193 -299.21452515 312.1676651 -299.22039795 311.1855011 C-299.22977569 309.17795901 -299.23635284 307.17040203 -299.24023438 305.1628418 C-299.24985496 302.17011799 -299.28091364 299.17810784 -299.3125 296.18554688 C-299.38567779 282.69937938 -298.17491789 269.73916431 -296 256.4375 C-295.7538553 254.88672684 -295.50775901 253.33594599 -295.26171875 251.78515625 C-292.78136101 236.55302065 -289.13920423 221.59068737 -284.5 206.875 C-284.22768555 206.00786377 -283.95537109 205.14072754 -283.67480469 204.24731445 C-269.53677894 160.63291718 -243.49950756 120.44371046 -212 87.4375 C-211.16855469 86.56480469 -210.33710938 85.69210937 -209.48046875 84.79296875 C-203.68281886 78.84923634 -197.5051179 73.58738501 -191 68.4375 C-189.74703125 67.41849609 -189.74703125 67.41849609 -188.46875 66.37890625 C-182.46757889 61.50770249 -176.32036663 56.88638144 -170 52.4375 C-168.92492187 51.67695313 -167.84984375 50.91640625 -166.7421875 50.1328125 C-149.99743888 38.5115623 -131.76792042 29.3076691 -113 21.4375 C-111.86401367 20.96038574 -111.86401367 20.96038574 -110.70507812 20.47363281 C-94.94623488 13.93364453 -78.93767963 9.02449001 -62.1875 5.75 C-61.218125 5.55970215 -60.24875 5.3694043 -59.25 5.17333984 C-55.84020955 4.5408965 -52.4255626 3.97863712 -49 3.4375 C-48.20579651 3.31041656 -47.41159302 3.18333313 -46.59332275 3.05239868 C-31.0246278 0.61839923 -15.74347166 -0.08706368 0 0 Z M-52 56.4375 C-55.27306799 57.28873329 -58.57563016 58.00838635 -61.875 58.75 C-94.76161043 66.41742356 -127.19053496 82.52030617 -153 104.4375 C-154.62293897 105.71096435 -156.24800947 106.98171605 -157.875 108.25 C-163.84057848 113.03547183 -169.46275345 118.1687461 -175 123.4375 C-175.56799316 123.97681152 -176.13598633 124.51612305 -176.72119141 125.07177734 C-185.30888417 133.28454459 -192.958917 141.86668658 -200 151.4375 C-200.62132812 152.27539062 -201.24265625 153.11328125 -201.8828125 153.9765625 C-206.88017731 160.92638612 -211.35717453 168.22966376 -215.82617188 175.52587891 C-216.86946059 177.2249119 -217.925988 178.91579973 -218.984375 180.60546875 C-223.25388628 187.60482241 -226.40260862 194.83305993 -229.26611328 202.484375 C-229.9944727 204.42278996 -230.74287249 206.3523763 -231.49609375 208.28125 C-243.32069455 238.81182427 -249.63265273 268.81323694 -249.4375 301.625 C-249.43479095 302.69711731 -249.43208191 303.76923462 -249.42929077 304.87384033 C-249.36743369 321.03524389 -248.70565229 336.64002828 -245 352.4375 C-244.68724121 353.7997168 -244.68724121 353.7997168 -244.36816406 355.18945312 C-242.41849747 363.49259945 -240.0776307 371.48440427 -237 379.4375 C-236.64679688 380.40171875 -236.29359375 381.3659375 -235.9296875 382.359375 C-228.51387975 402.24472614 -219.60818898 422.70409317 -206.92578125 439.8359375 C-205.33620769 441.98331273 -203.80663348 444.15090688 -202.29296875 446.3515625 C-188.41323576 466.47899087 -172.34389673 484.60546466 -152.61914062 499.21533203 C-151.05516604 500.39585929 -149.53423331 501.63275216 -148.015625 502.87109375 C-125.86514507 520.80380095 -99.15660537 533.2830688 -72 541.4375 C-70.63137724 541.86285297 -69.26287816 542.28860419 -67.89453125 542.71484375 C-62.27585749 544.40707025 -56.91862078 545.76703371 -51.06640625 546.23046875 C-48.10465833 546.52720342 -45.2703462 547.22486738 -42.375 547.8984375 C-39.79938288 548.48303481 -37.21957299 549.00614662 -34.625 549.5 C-33.81289063 549.65597656 -33.00078125 549.81195312 -32.1640625 549.97265625 C-21.63199746 551.51995963 -11.15570218 551.62376043 -0.53198242 551.62280273 C2.16438788 551.62498133 4.86034272 551.64317159 7.55664062 551.66210938 C18.21709384 551.69708574 28.46076129 551.08231773 39 549.4375 C39.92031006 549.30206787 40.84062012 549.16663574 41.78881836 549.02709961 C67.61278382 545.04133282 92.36014938 536.44056289 115 523.4375 C116.04929687 522.86773438 117.09859375 522.29796875 118.1796875 521.7109375 C130.79507745 514.75960018 142.58508654 506.47055273 153.70703125 497.3203125 C155.39271409 495.93615725 157.102139 494.58078891 158.82421875 493.2421875 C160.21060547 492.16324219 160.21060547 492.16324219 161.625 491.0625 C162.46289062 490.41539062 163.30078125 489.76828125 164.1640625 489.1015625 C164.76992188 488.55242187 165.37578125 488.00328125 166 487.4375 C166 486.7775 166 486.1175 166 485.4375 C166.85658203 485.07011719 166.85658203 485.07011719 167.73046875 484.6953125 C174.99228461 480.67069166 180.69537279 472.73159136 186 466.4375 C186.804375 465.48875 187.60875 464.54 188.4375 463.5625 C190.19746348 461.60855274 190.19746348 461.60855274 190 459.4375 C190.66 459.4375 191.32 459.4375 192 459.4375 C193.33562563 457.94030991 193.33562563 457.94030991 194.64453125 455.96484375 C195.41313477 454.86172852 195.41313477 454.86172852 196.19726562 453.73632812 C196.99680664 452.5674707 196.99680664 452.5674707 197.8125 451.375 C198.86053692 449.86318407 199.90871257 448.35146431 200.95703125 446.83984375 C201.72333862 445.7262146 201.72333862 445.7262146 202.50512695 444.59008789 C203.88604135 442.60159822 205.29627187 440.63854023 206.71875 438.6796875 C208.58070219 436.03341983 210.18617735 433.48082827 211.6875 430.625 C213.58323654 427.06062035 215.50930835 423.51983363 217.5 420.0078125 C217.94255127 419.2238208 218.38510254 418.4398291 218.84106445 417.63208008 C219.71829583 416.08010427 220.59945425 414.53033956 221.48510742 412.9831543 C223.75139106 408.95484735 225.65412265 405.00837472 227.18725586 400.64941406 C228.16049227 398.00071418 229.28030407 395.43065648 230.3984375 392.83984375 C233.25550769 386.02460778 235.46781812 379.06291103 237.625 372 C238.0065625 370.77990234 238.388125 369.55980469 238.78125 368.30273438 C245.96671372 344.9995322 248.22943026 322.13459186 248.25 297.875 C248.25100708 297.04156067 248.25201416 296.20812134 248.25305176 295.34942627 C248.24300597 283.00463396 247.7398459 270.98955326 245.44873047 258.82617188 C244.99190835 256.3944267 244.58955409 253.95759841 244.19140625 251.515625 C241.16577274 233.93681554 235.38247426 216.66042933 228 200.4375 C227.53722656 199.35855469 227.07445312 198.27960938 226.59765625 197.16796875 C219.15136709 180.36375141 209.59771216 164.67701735 198 150.4375 C197.23300781 149.3959375 196.46601562 148.354375 195.67578125 147.28125 C189.89824866 139.44858307 183.36684303 132.51782405 176.5 125.625 C175.6339917 124.75359375 174.7679834 123.8821875 173.87573242 122.984375 C167.88636033 117.05981686 161.60365311 111.66372319 155 106.4375 C154.28908203 105.86717041 153.57816406 105.29684082 152.84570312 104.70922852 C137.95146999 92.82447187 122.27715721 82.51841153 105 74.4375 C104.07574219 73.963125 103.15148437 73.48875 102.19921875 73 C80.19438092 62.04224584 55.2485492 55.85868079 31 52.4375 C29.80052734 52.26404053 28.60105469 52.09058105 27.36523438 51.91186523 C22.5765791 51.32268966 17.82016771 51.25813164 13 51.234375 C11.58109718 51.22405746 11.58109718 51.22405746 10.13352966 51.21353149 C7.08898042 51.19641143 4.04459485 51.19007512 1 51.1875 C-0.03212616 51.18582825 -1.06425232 51.18415649 -2.12765503 51.18243408 C-27.5494983 50.64497573 -27.5494983 50.64497573 -52 56.4375 Z " fill="#5A5A5B" transform="translate(513,211.5625)"/>
<path d="M0 0 C31.24094814 26.21263537 53.15115723 62.87086803 57.953125 103.73046875 C62.02191177 151.36532747 49.4807878 196.02990848 18.703125 232.7578125 C16.91198617 234.84093446 15.09397423 236.89419264 13.265625 238.9453125 C12.57339844 239.72261719 11.88117188 240.49992187 11.16796875 241.30078125 C-0.1468587 253.26964497 -14.11404341 262.53723445 -28.734375 269.9453125 C-29.35521973 270.26193848 -29.97606445 270.57856445 -30.61572266 270.90478516 C-68.4882475 289.97548857 -112.03260993 293.55096538 -152.6953125 281.07446289 C-170.9927556 275.0326436 -188.57044894 265.821792 -203.734375 253.9453125 C-204.58902344 253.29433594 -205.44367188 252.64335938 -206.32421875 251.97265625 C-237.66204834 227.35336281 -255.00996338 195.30240183 -263.734375 156.9453125 C-263.91516602 156.17735352 -264.09595703 155.40939453 -264.28222656 154.61816406 C-269.64666666 130.97410105 -268.71278085 104.07147912 -261.734375 80.9453125 C-261.51507324 80.19620605 -261.29577148 79.44709961 -261.06982422 78.67529297 C-256.01599623 61.84055658 -248.25446041 45.04576311 -237.734375 30.9453125 C-237.16203125 30.16414063 -236.5896875 29.38296875 -236 28.578125 C-231.58785352 22.72899504 -226.73121256 17.29788518 -221.734375 11.9453125 C-220.99703125 11.14222656 -220.2596875 10.33914063 -219.5 9.51171875 C-162.35312062 -50.41579738 -62.56334609 -51.63907271 0 0 Z " fill="#0A0A0A" transform="translate(616.734375,387.0546875)"/>
<path d="M0 0 C0.98063416 0.00270905 1.96126831 0.00541809 2.97161865 0.00820923 C17.90847785 0.07064743 32.12536155 0.86778166 46.6875 4.4375 C47.94771973 4.72633057 47.94771973 4.72633057 49.23339844 5.02099609 C78.60050177 11.77847835 104.29823334 25.59654612 127.6875 44.4375 C128.70070313 45.24445313 129.71390625 46.05140625 130.7578125 46.8828125 C170.62117323 79.24588128 196.96431873 124.0358277 203.0625 175.3125 C203.98069941 184.68556453 203.89252071 194.15316947 203.9375 203.5625 C203.94303894 204.31964294 203.94857788 205.07678589 203.95428467 205.85687256 C204.19724183 251.36139285 186.51304847 297.29937987 157.6875 332.4375 C157.28080078 332.93975098 156.87410156 333.44200195 156.45507812 333.95947266 C136.15066873 358.91267825 110.01075246 378.63138883 80.57861328 391.59863281 C78.92606351 392.33167709 77.28782216 393.09680771 75.65234375 393.8671875 C40.89363585 409.60882455 -7.66701993 410.28889211 -44.3125 401.4375 C-45.16086426 401.24494629 -46.00922852 401.05239258 -46.88330078 400.85400391 C-80.18340511 393.24563878 -109.97700997 374.89371903 -134.828125 351.73046875 C-136.95994305 349.76289455 -139.13951728 347.90900872 -141.375 346.0625 C-168.11842932 322.68917762 -185.53961209 285.39897762 -194.5 251.875 C-194.75048096 250.94107422 -195.00096191 250.00714844 -195.2590332 249.04492188 C-198.8053542 235.28687656 -199.65913683 222.10368244 -199.62817383 207.95703125 C-199.62503519 204.97097482 -199.64846936 201.98593318 -199.67382812 199 C-199.77816861 167.09254865 -192.4975025 138.4756477 -178.375 110 C-177.80217285 108.83944092 -177.2293457 107.67888184 -176.63916016 106.4831543 C-169.64976835 92.67116074 -160.97598057 80.28355404 -150.5390625 68.88671875 C-148.56073706 66.71056077 -146.65076514 64.49359721 -144.75 62.25 C-141.25696943 58.24186814 -137.36489678 54.864044 -133.3125 51.4375 C-132.04141082 50.29195049 -130.77057961 49.14611467 -129.5 48 C-119.9122387 39.66843864 -109.25024198 33.16849118 -98.37792969 26.68017578 C-96.64820552 25.63947885 -94.93521767 24.57103251 -93.2265625 23.49609375 C-64.78429984 5.93360778 -32.97521511 -0.21522825 0 0 Z M-75.51416016 59.44189453 C-77.33575989 60.45037725 -79.1722024 61.42699713 -81.01171875 62.40234375 C-88.84131233 66.62965311 -95.64990737 71.5510339 -102.3125 77.4375 C-103.15425781 78.1696875 -103.99601562 78.901875 -104.86328125 79.65625 C-129.57563057 101.48613244 -146.93808828 128.18244024 -155.67919922 160.12841797 C-156.08656897 161.61373141 -156.50891073 163.09506207 -156.94970703 164.57080078 C-163.29143079 186.05633996 -162.48852816 212.75938039 -157.3125 234.4375 C-157.08675293 235.41557617 -156.86100586 236.39365234 -156.62841797 237.40136719 C-152.07674573 256.72909985 -146.16547452 276.22304135 -134.3125 292.4375 C-133.61382812 293.4171875 -132.91515625 294.396875 -132.1953125 295.40625 C-127.2886407 302.12957884 -122.03802191 308.40019224 -116.3125 314.4375 C-115.46945312 315.33339844 -114.62640625 316.22929688 -113.7578125 317.15234375 C-90.020927 341.68045877 -57.86984498 357.83842918 -24.3125 363.4375 C-22.76369141 363.74494141 -22.76369141 363.74494141 -21.18359375 364.05859375 C19.42357008 371.28318118 61.7325151 359.71557739 95.5625 337 C102.2500505 332.17577464 108.54933701 326.93679296 114.6875 321.4375 C115.46609375 320.74398438 116.2446875 320.05046875 117.046875 319.3359375 C143.71492292 294.12781921 159.99510726 257.51115354 163.6875 221.4375 C163.88279297 219.75527344 163.88279297 219.75527344 164.08203125 218.0390625 C167.11961003 187.17726213 162.43868614 158.25089525 148.6875 130.4375 C148.22005371 129.46224365 148.22005371 129.46224365 147.74316406 128.46728516 C129.23312602 90.0271268 94.07422074 62.83306942 54.6171875 48.41796875 C49.67979334 46.7655875 44.78934416 45.48375557 39.6875 44.4375 C38.49979004 44.18371582 38.49979004 44.18371582 37.28808594 43.92480469 C-1.16344439 35.89708117 -40.92030481 40.28955473 -75.51416016 59.44189453 Z " fill="#EEEEEE" transform="translate(510.3125,309.5625)"/>
<path d="M0 0 C0.9075 0.804375 1.815 1.60875 2.75 2.4375 C11.92533174 10.39591654 11.92533174 10.39591654 22.30859375 16.51953125 C25 18 25 18 25.875 20.1875 C25.91625 20.785625 25.9575 21.38375 26 22 C17.87182105 18.00942119 11.06465237 12.57984592 4 7 C3.21238281 6.48695313 2.42476563 5.97390625 1.61328125 5.4453125 C1.08089844 4.96835937 0.54851562 4.49140625 0 4 C0 2.68 0 1.36 0 0 Z " fill="#111111" transform="translate(404,630)"/>
<path d="M0 0 C0.66 0 1.32 0 2 0 C2 0.66 2 1.32 2 2 C3.27875 1.79375 4.5575 1.5875 5.875 1.375 C8.0546875 1.0234375 8.0546875 1.0234375 10 1 C10.66 1.66 11.32 2.32 12 3 C-3.51 3 -19.02 3 -35 3 C-33 1 -33 1 -29.85131836 0.78881836 C-28.51407078 0.79590817 -27.17685317 0.81363019 -25.83984375 0.83984375 C-24.78223595 0.8476461 -24.78223595 0.8476461 -23.70326233 0.85560608 C-21.44780033 0.87344427 -19.19278915 0.90462686 -16.9375 0.9375 C-14.6786844 0.96507285 -12.41993117 0.9897766 -10.161026 1.00868225 C-8.75425979 1.02098604 -7.34752873 1.03863448 -5.94090271 1.06199646 C-4.29389284 1.07895895 -2.64649325 1.04460057 -1 1 C-0.67 0.67 -0.34 0.34 0 0 Z " fill="#141415" transform="translate(335,920)"/>
<path d="M0 0 C0.99 0.495 0.99 0.495 2 1 C2.9742048 5.18197105 3.11803875 9.21186268 3.09765625 13.4921875 C3.09443359 14.69101562 3.09121094 15.88984375 3.08789062 17.125 C3.07951172 18.3625 3.07113281 19.6 3.0625 20.875 C3.05798828 22.13570313 3.05347656 23.39640625 3.04882812 24.6953125 C3.0370796 27.79692386 3.02065167 30.89843725 3 34 C2.67 34 2.34 34 2 34 C1.93941406 32.92621094 1.87882813 31.85242188 1.81640625 30.74609375 C1.73192349 29.30988685 1.64727946 27.87368942 1.5625 26.4375 C1.52318359 25.73302734 1.48386719 25.02855469 1.44335938 24.30273438 C1.2421463 20.94402383 0.95321928 17.67803858 0.46875 14.34375 C0.02703857 11.19287514 -0.10172089 8.23939223 -0.0625 5.0625 C-0.05347656 4.10472656 -0.04445313 3.14695312 -0.03515625 2.16015625 C-0.02355469 1.44730469 -0.01195312 0.73445313 0 0 Z " fill="#040404" transform="translate(671,483)"/>
<path d="M0 0 C1.37432457 3.81756824 0.67975039 7.07255329 0 11 C-0.66 10.34 -1.32 9.68 -2 9 C-4.10820797 9.3185177 -4.10820797 9.3185177 -6 10 C-6 8 -6 8 -5 7 C-5.66 7 -6.32 7 -7 7 C-5.66667905 3.00003714 -3.5042173 2.16217663 0 0 Z " fill="#9E9E9E" transform="translate(313,474)"/>
<path d="M0 0 C2.25998595 3.59462331 2.20868087 6.56595675 2.125 10.75 C2.10695313 11.92046875 2.08890625 13.0909375 2.0703125 14.296875 C2.03550781 15.63492188 2.03550781 15.63492188 2 17 C1.01 17 0.02 17 -1 17 C-1.02684679 14.35409986 -1.04676357 11.70846904 -1.0625 9.0625 C-1.07087891 8.30775391 -1.07925781 7.55300781 -1.08789062 6.77539062 C-1.09652441 4.85005687 -1.05224333 2.92464419 -1 1 C-0.67 0.67 -0.34 0.34 0 0 Z " fill="#494949" transform="translate(939,507)"/>
<path d="M0 0 C0.33 0 0.66 0 1 0 C0.31195504 6.19240462 -1.28048715 12.01955594 -3 18 C-3.66 17.67 -4.32 17.34 -5 17 C-4.67 13.37 -4.34 9.74 -4 6 C-3.01 5.67 -2.02 5.34 -1 5 C-0.67 3.35 -0.34 1.7 0 0 Z " fill="#909090" transform="translate(319,446)"/>
<path d="M0 0 C0.66 0.33 1.32 0.66 2 1 C1.51789063 1.39832031 1.03578125 1.79664063 0.5390625 2.20703125 C-0.09257812 2.73683594 -0.72421875 3.26664062 -1.375 3.8125 C-2.00148438 4.33457031 -2.62796875 4.85664063 -3.2734375 5.39453125 C-5.2221048 7.08225739 -5.2221048 7.08225739 -7 10 C-9.95264073 12.04413589 -11.36672806 13 -15 13 C-13.2519799 11.3936298 -11.50168356 9.78986703 -9.75 8.1875 C-9.25886719 7.73568359 -8.76773437 7.28386719 -8.26171875 6.81835938 C-5.60492352 4.39181973 -2.92534924 2.09650029 0 0 Z " fill="#151516" transform="translate(415,381)"/>
<path d="M0 0 C4.59770843 1.97044647 7.25091795 4.87637693 10 9 C9.67 9.99 9.34 10.98 9 12 C7.68181446 10.56771184 6.37063296 9.12897516 5.0625 7.6875 C4.33160156 6.88699219 3.60070312 6.08648438 2.84765625 5.26171875 C1 3 1 3 0 0 Z " fill="#141414" transform="translate(382,609)"/>
<path d="M0 0 C-1.26540052 3.79620155 -2.78218431 4.48678188 -6.0625 6.6875 C-6.98160156 7.31011719 -7.90070312 7.93273437 -8.84765625 8.57421875 C-9.55792969 9.04472656 -10.26820313 9.51523437 -11 10 C-11 9.01 -11 8.02 -11 7 C-9.1015625 5.17578125 -9.1015625 5.17578125 -6.625 3.3125 C-5.81289063 2.68988281 -5.00078125 2.06726563 -4.1640625 1.42578125 C-2 0 -2 0 0 0 Z " fill="#141414" transform="translate(616,637)"/>
<path d="M0 0 C0.66 0 1.32 0 2 0 C1.979375 0.721875 1.95875 1.44375 1.9375 2.1875 C1.99820559 4.91925138 2.39258535 7.34256091 3 10 C2.01 10.495 2.01 10.495 1 11 C0.67 11.99 0.34 12.98 0 14 C0 9.38 0 4.76 0 0 Z " fill="#494949" transform="translate(938,539)"/>
<path d="M0 0 C0.33 0 0.66 0 1 0 C1 1.98 1 3.96 1 6 C-2.465 7.485 -2.465 7.485 -6 9 C-4.47300326 5.56425733 -2.44973747 2.84485642 0 0 Z " fill="#606060" transform="translate(287,315)"/>
<path d="M0 0 C0.66 0.33 1.32 0.66 2 1 C1.36191406 1.40992188 0.72382813 1.81984375 0.06640625 2.2421875 C-1.17302734 3.05042969 -1.17302734 3.05042969 -2.4375 3.875 C-3.26121094 4.40867187 -4.08492188 4.94234375 -4.93359375 5.4921875 C-7.11038871 6.83834306 -7.11038871 6.83834306 -8 9 C-10 8 -10 8 -11 6 C-9.21385682 4.96953278 -7.42089982 3.95086764 -5.625 2.9375 C-4.62726563 2.36902344 -3.62953125 1.80054688 -2.6015625 1.21484375 C-1.74304688 0.81394531 -0.88453125 0.41304688 0 0 Z " fill="#909190" transform="translate(415,282)"/>
<path d="M0 0 C1.74609375 1.546875 1.74609375 1.546875 3 3 C1.24929483 2.88529863 -0.50057536 2.75780972 -2.25 2.625 C-3.22453125 2.55539062 -4.1990625 2.48578125 -5.203125 2.4140625 C-7.89633189 2.01534751 -9.66963279 1.36492937 -12 0 C-8.12398219 -1.45350668 -3.92998724 -1.12977046 0 0 Z " fill="#252525" transform="translate(487,670)"/>
<path d="M0 0 C0.33 0 0.66 0 1 0 C1.29341888 5.67276511 1.00559652 8.99067246 -2 14 C-2.33 14 -2.66 14 -3 14 C-2.48594831 9.03083364 -1.76615118 4.70973649 0 0 Z " fill="#F5F4F5" transform="translate(671,550)"/>
<path d="M0 0 C0.66 0.99 1.32 1.98 2 3 C2.99 3 3.98 3 5 3 C4.01 4.485 4.01 4.485 3 6 C3.33 6.66 3.66 7.32 4 8 C2.68 8 1.36 8 0 8 C-0.33 8.66 -0.66 9.32 -1 10 C-0.67 6.7 -0.34 3.4 0 0 Z " fill="#8E8E8E" transform="translate(712,544)"/>
<path d="M0 0 C0.66 0 1.32 0 2 0 C1.88490339 1.41750563 1.75746342 2.83401169 1.625 4.25 C1.55539062 5.03890625 1.48578125 5.8278125 1.4140625 6.640625 C0.98492887 9.085877 0.21399362 10.84836903 -1 13 C-2.07310858 9.72814447 -1.89263102 7.57052408 -1.0625 4.25 C-0.86785156 3.45078125 -0.67320312 2.6515625 -0.47265625 1.828125 C-0.31667969 1.22484375 -0.16070312 0.6215625 0 0 Z " fill="#181818" transform="translate(353,477)"/>
<path d="M0 0 C1 2 1 2 0.375 4.3125 C-1.5567801 8.08825202 -4.17023607 11.08511804 -8 13 C-6.53181332 9.89257577 -4.79975 7.09528261 -2.875 4.25 C-2.33617187 3.45078125 -1.79734375 2.6515625 -1.2421875 1.828125 C-0.62730469 0.92320312 -0.62730469 0.92320312 0 0 Z " fill="#E4E4E4" transform="translate(650,599)"/>
<path d="M0 0 C2.625 0.9375 2.625 0.9375 5 2 C5 3.98 5 5.96 5 8 C4.34 8 3.68 8 3 8 C3 7.01 3 6.02 3 5 C2.01 4.67 1.02 4.34 0 4 C0 3.34 0 2.68 0 2 C-0.66 1.67 -1.32 1.34 -2 1 C-1.34 0.67 -0.68 0.34 0 0 Z " fill="#9C9C9C" transform="translate(416,691)"/>
<path d="M0 0 C-0.33 1.32 -0.66 2.64 -1 4 C-1 3.34 -1 2.68 -1 2 C-3.31 3.65 -5.62 5.3 -8 7 C-8.33 6.34 -8.66 5.68 -9 5 C-4.16129032 0 -4.16129032 0 0 0 Z " fill="#909090" transform="translate(616,689)"/>
<path d="M0 0 C0.515625 0.391875 1.03125 0.78375 1.5625 1.1875 C-1.39461562 2.83034201 -4.05758426 3.8317194 -7.4375 4.1875 C-8.0975 3.5275 -8.7575 2.8675 -9.4375 2.1875 C-3.0375 -1.0125 -3.0375 -1.0125 0 0 Z " fill="#E6E5E6" transform="translate(584.4375,659.8125)"/>
<path d="M0 0 C0.66 0 1.32 0 2 0 C1.67 2.97 1.34 5.94 1 9 C0.34 9 -0.32 9 -1 9 C-1.33 9.99 -1.66 10.98 -2 12 C-1 3.42857143 -1 3.42857143 0 0 Z " fill="#E7E7E7" transform="translate(318,453)"/>
<path d="M0 0 C0.33 0 0.66 0 1 0 C1.63019694 8.03501094 1.63019694 8.03501094 -1 12.0625 C-1.66 12.701875 -2.32 13.34125 -3 14 C-2.40380045 9.13103697 -1.43023178 4.67209049 0 0 Z " fill="#8A8A8A" transform="translate(274,441)"/>
<path d="M0 0 C3.87051275 3.07881696 7.02911382 6.00073014 10 10 C9.67 10.66 9.34 11.32 9 12 C7.49405319 10.38050958 5.99539332 8.75424026 4.5 7.125 C3.6646875 6.22007812 2.829375 5.31515625 1.96875 4.3828125 C0 2 0 2 0 0 Z " fill="#616161" transform="translate(733,312)"/>
<path d="M0 0 C4.10958767 1.45044271 7.43258745 3.51110752 11 6 C10.67 6.66 10.34 7.32 10 8 C8.32819726 7.05065487 6.66266064 6.09026687 5 5.125 C4.071875 4.59132813 3.14375 4.05765625 2.1875 3.5078125 C1.465625 3.01023437 0.74375 2.51265625 0 2 C0 1.34 0 0.68 0 0 Z " fill="#606060" transform="translate(668,257)"/>
<path d="M0 0 C0.66 0.33 1.32 0.66 2 1 C2 1.66 2 2.32 2 3 C2.99 3.33 3.98 3.66 5 4 C0.05 4 -4.9 4 -10 4 C-10 3.67 -10 3.34 -10 3 C-6.7 2.67 -3.4 2.34 0 2 C0 1.34 0 0.68 0 0 Z " fill="#161516" transform="translate(588,919)"/>
<path d="M0 0 C-1.39332574 3.36720387 -2.9789286 4.9859524 -6 7 C-6.66 6.67 -7.32 6.34 -8 6 C-6.98565881 3.46414701 -6.34981128 2.21863205 -4 0.75 C-2 0 -2 0 0 0 Z " fill="#111212" transform="translate(625,629)"/>
<path d="M0 0 C0.66 0.33 1.32 0.66 2 1 C1.09515208 2.15518918 0.1755794 3.29885406 -0.75 4.4375 C-1.26046875 5.07558594 -1.7709375 5.71367188 -2.296875 6.37109375 C-4.19667629 8.18810554 -5.43586908 8.60423197 -8 9 C-7.04270084 7.87411986 -6.08412105 6.7493285 -5.125 5.625 C-4.59132813 4.99851562 -4.05765625 4.37203125 -3.5078125 3.7265625 C-2.38567993 2.44163349 -1.20628025 1.20628025 0 0 Z " fill="#F5F5F5" transform="translate(631,624)"/>
<path d="M0 0 C0.66 0 1.32 0 2 0 C3.2890625 1.6796875 3.2890625 1.6796875 4.625 3.875 C5.29402344 4.95394531 5.29402344 4.95394531 5.9765625 6.0546875 C7 8 7 8 7 10 C2.57320993 8.52440331 2.08567304 6.09942632 0 2 C0 1.34 0 0.68 0 0 Z " fill="#111111" transform="translate(371,592)"/>
<path d="M0 0 C4.24822374 0.47202486 6.19989709 2.96655518 9 6 C8.443125 5.855625 7.88625 5.71125 7.3125 5.5625 C4.88615805 4.97230872 2.45093655 4.476571 0 4 C0 2.68 0 1.36 0 0 Z " fill="#111111" transform="translate(608,382)"/>
<path d="M0 0 C9.41002278 0.96355353 9.41002278 0.96355353 14 2 C14 2.33 14 2.66 14 3 C12.41753293 3.08153933 10.83383727 3.13943557 9.25 3.1875 C8.36828125 3.22230469 7.4865625 3.25710938 6.578125 3.29296875 C3.55328417 2.94923684 2.24416398 1.99772541 0 0 Z " fill="#F4F4F4" transform="translate(467,709)"/>
<path d="M0 0 C0.99 0.99 1.98 1.98 3 3 C2.79846293 5.84875378 1.85624823 8.25099253 1 11 C0.67 11 0.34 11 0 11 C0 7.37 0 3.74 0 0 Z " fill="#4A4A4A" transform="translate(938,593)"/>
<path d="M0 0 C0.33 0 0.66 0 1 0 C1.33 3.96 1.66 7.92 2 12 C1.34 12 0.68 12 0 12 C-0.92844389 7.66726186 -0.92844389 4.33273814 0 0 Z " fill="#E3E3E3" transform="translate(710,470)"/>
<path d="M0 0 C2.475 0.99 2.475 0.99 5 2 C5 2.33 5 2.66 5 3 C1.04 3 -2.92 3 -7 3 C-5.68 2.34 -4.36 1.68 -3 1 C-2.01 1.33 -1.02 1.66 0 2 C0 1.34 0 0.68 0 0 Z " fill="#161617" transform="translate(176,920)"/>
<path d="M0 0 C3.7952131 1.49097658 5.61042731 3.75700849 8 7 C7.01 7 6.02 7 5 7 C4.731875 6.360625 4.46375 5.72125 4.1875 5.0625 C3.11332248 2.66868314 3.11332248 2.66868314 0 2 C0 1.34 0 0.68 0 0 Z " fill="#E5E4E4" transform="translate(391,622)"/>
<path d="M0 0 C0.66 0 1.32 0 2 0 C3.32 2.64 4.64 5.28 6 8 C5.01 8.33 4.02 8.66 3 9 C0 3.375 0 3.375 0 0 Z " fill="#191919" transform="translate(366,582)"/>
<path d="M0 0 C0.33 0 0.66 0 1 0 C0.39174965 4.34464536 -0.26167392 8.67551867 -1 13 C-1.66 12.67 -2.32 12.34 -3 12 C-2.14285714 3.42857143 -2.14285714 3.42857143 0 0 Z " fill="#E6E6E6" transform="translate(711,543)"/>
<path d="M0 0 C0.125 3.375 0.125 3.375 0 7 C-0.66 7.66 -1.32 8.32 -2 9 C-2 7.02 -2 5.04 -2 3 C-2.66 3 -3.32 3 -4 3 C-4 2.34 -4 1.68 -4 1 C-1 0 -1 0 0 0 Z " fill="#545555" transform="translate(264,487)"/>
<path d="M0 0 C0.66 0.33 1.32 0.66 2 1 C0.1875 4 0.1875 4 -2 7 C-2.99 7 -3.98 7 -5 7 C-3.35 4.69 -1.7 2.38 0 0 Z " fill="#606060" transform="translate(273,333)"/>
<path d="M0 0 C0.33 0.66 0.66 1.32 1 2 C-2.98196457 3.05404945 -5.98195309 2.84098656 -10 2 C-6.3558226 -0.4294516 -4.28758728 -0.16179575 0 0 Z " fill="#9D9E9D" transform="translate(510,263)"/>
<path d="M0 0 C0 3 0 3 0 3 Z M-3 3 C-2.34 3.33 -1.68 3.66 -1 4 C-1.99 5.485 -1.99 5.485 -3 7 C-3.66 7 -4.32 7 -5 7 C-5.33 7.99 -5.66 8.98 -6 10 C-6.66 9.34 -7.32 8.68 -8 8 C-7.360625 7.731875 -6.72125 7.46375 -6.0625 7.1875 C-3.66868314 6.11332248 -3.66868314 6.11332248 -3 3 Z " fill="#424142" transform="translate(920,895)"/>
<path d="M0 0 C-0.33 0.66 -0.66 1.32 -1 2 C-4.4375 2.75 -4.4375 2.75 -8 3 C-8.66 2.34 -9.32 1.68 -10 1 C-6.61981469 -0.04005702 -3.5219721 -0.08004482 0 0 Z " fill="#DDDEDE" transform="translate(556,670)"/>
<path d="M0 0 C1.66666667 0 3.33333333 0 5 0 C4.34 1.32 3.68 2.64 3 4 C2.34 4 1.68 4 1 4 C0.34 5.32 -0.32 6.64 -1 8 C-0.67 5.36 -0.34 2.72 0 0 Z " fill="#606060" transform="translate(757,556)"/>
<path d="M0 0 C-2.66559313 1.77706209 -5.0280615 2.87548273 -8 4 C-8.66 3.01 -9.32 2.02 -10 1 C-6.52674819 -0.1577506 -3.63932552 -0.06866652 0 0 Z " fill="#F5F5F5" transform="translate(478,313)"/>
<path d="M0 0 C4.67692308 1.47692308 4.67692308 1.47692308 6.3125 4.125 C6.539375 4.74375 6.76625 5.3625 7 6 C2.32307692 4.52307692 2.32307692 4.52307692 0.6875 1.875 C0.460625 1.25625 0.23375 0.6375 0 0 Z " fill="#E3E2E2" transform="translate(619,388)"/>
<path d="M0 0 C-1.25 1.5 -1.25 1.5 -3 3 C-4.32 3 -5.64 3 -7 3 C-7 2.34 -7 1.68 -7 1 C-3.375 -1.125 -3.375 -1.125 0 0 Z " fill="#151515" transform="translate(447,365)"/>
<path d="M0 0 C-1.125 1.5625 -1.125 1.5625 -3 3 C-6.1875 2.6875 -6.1875 2.6875 -9 2 C-5.86501708 0.14223235 -3.62528568 -0.20140476 0 0 Z " fill="#1E1E1E" transform="translate(488,352)"/>
<path d="M0 0 C0.99 0.33 1.98 0.66 3 1 C2.34 2.32 1.68 3.64 1 5 C-0.32 4.67 -1.64 4.34 -3 4 C-2.01 2.68 -1.02 1.36 0 0 Z M3 0 C5 1 5 1 5 1 Z " fill="#9C9C9B" transform="translate(652,350)"/>
</svg>
